<svg width="27" height="27" viewBox="0 0 27 27" fill="none" xmlns="http://www.w3.org/2000/svg">
<path d="M25.1889 7.05389C23.9817 4.9855 22.3442 3.34795 20.276 2.14087C18.2075 0.933737 15.9493 0.330322 13.4998 0.330322C11.0506 0.330322 8.79166 0.933922 6.72357 2.14087C4.65518 3.34789 3.01775 4.9855 1.81055 7.05389C0.603538 9.12223 0 11.3809 0 13.8297C0 16.7714 0.858239 19.4166 2.57515 21.7661C4.29187 24.1157 6.50963 25.7415 9.22823 26.6438C9.54468 26.7025 9.77894 26.6612 9.93126 26.5209C10.0836 26.3804 10.1597 26.2045 10.1597 25.9938C10.1597 25.9586 10.1567 25.6423 10.1509 25.0446C10.1448 24.4468 10.142 23.9254 10.142 23.4804L9.73769 23.5504C9.47991 23.5976 9.15472 23.6176 8.76211 23.6119C8.36968 23.6065 7.96229 23.5653 7.5405 23.4889C7.11852 23.4131 6.72603 23.2373 6.36273 22.9619C5.99961 22.6865 5.74183 22.3261 5.58945 21.8811L5.41368 21.4766C5.29652 21.2073 5.11206 20.9081 4.86007 20.5802C4.60808 20.252 4.35326 20.0295 4.09548 19.9123L3.9724 19.8242C3.8904 19.7657 3.8143 19.6951 3.74393 19.6131C3.67362 19.5312 3.62098 19.4492 3.58583 19.367C3.55061 19.2849 3.57979 19.2174 3.67368 19.1646C3.76757 19.1117 3.93725 19.086 4.18345 19.086L4.53488 19.1385C4.76926 19.1855 5.05918 19.3258 5.405 19.5603C5.75063 19.7946 6.03476 20.0993 6.25745 20.4741C6.52711 20.9547 6.852 21.3209 7.23304 21.5729C7.61376 21.8248 7.99763 21.9506 8.38427 21.9506C8.77091 21.9506 9.10485 21.9213 9.38621 21.863C9.66726 21.8044 9.93095 21.7163 10.1772 21.5992C10.2826 20.8137 10.5698 20.2103 11.0383 19.7885C10.3705 19.7183 9.77001 19.6126 9.23666 19.4721C8.70362 19.3313 8.15278 19.1029 7.58452 18.7862C7.01595 18.47 6.54429 18.0772 6.16941 17.6087C5.79447 17.1399 5.48676 16.5245 5.24671 15.763C5.00654 15.0012 4.88642 14.1224 4.88642 13.1263C4.88642 11.7081 5.3494 10.5013 6.27518 9.50517C5.84151 8.43896 5.88245 7.2437 6.39813 5.91953C6.73798 5.81394 7.24196 5.89318 7.90984 6.15675C8.57784 6.42044 9.06692 6.64632 9.37759 6.83361C9.68825 7.02083 9.93717 7.17949 10.1247 7.30817C11.2147 7.0036 12.3396 6.85128 13.4997 6.85128C14.6597 6.85128 15.7848 7.0036 16.8749 7.30817L17.5429 6.88649C17.9996 6.60514 18.539 6.34729 19.1597 6.11291C19.7808 5.87865 20.2557 5.81413 20.584 5.91971C21.1111 7.24395 21.1581 8.43914 20.7243 9.50536C21.65 10.5015 22.1132 11.7086 22.1132 13.1265C22.1132 14.1225 21.9927 15.0041 21.7529 15.7718C21.5127 16.5396 21.2024 17.1544 20.8217 17.6175C20.4405 18.0805 19.9658 18.4702 19.3976 18.7864C18.8292 19.1029 18.2782 19.3313 17.7451 19.472C17.2118 19.6128 16.6114 19.7185 15.9435 19.7888C16.5526 20.316 16.8573 21.148 16.8573 22.2847V25.9933C16.8573 26.204 16.9305 26.3799 17.0772 26.5204C17.2236 26.6607 17.4549 26.702 17.7714 26.6432C20.4904 25.7411 22.7081 24.1152 24.4248 21.7656C26.1413 19.4161 26.9998 16.7709 26.9998 13.8292C26.9992 11.3807 26.3954 9.12223 25.1889 7.05389Z" fill="black"/>
</svg>
