
<svg width="231" height="35" viewBox="0 0 231 35" fill="none" xmlns="http://www.w3.org/2000/svg">
                    <path d="M229 12L0 28H229V12Z" fill="#56F43E"/>
                    <path d="M3.10938 27.3281C2.95312 27.3281 2.71094 27.3047 2.38281 27.2578C2.13281 26.9922 1.90625 26.6328 1.70312 26.1797C1.51562 25.7109 1.36719 25.2188 1.25781 24.7031C1.16406 24.1719 1.11719 23.6484 1.11719 23.1328C1.13281 22.6016 1.22656 22.1328 1.39844 21.7266C1.39844 21.7109 1.46875 21.5234 1.60938 21.1641C1.76562 20.8047 1.96094 20.3516 2.19531 19.8047C2.42969 19.2422 2.69531 18.625 2.99219 17.9531C3.28906 17.2656 3.58594 16.5938 3.88281 15.9375C4.17969 15.2812 4.46094 14.6875 4.72656 14.1562C5.00781 13.6094 5.25 13.1875 5.45312 12.8906C5.59375 12.6719 5.71875 12.4609 5.82812 12.2578C5.95312 12.0547 6.07031 11.8672 6.17969 11.6953C6.35156 11.4141 6.50781 11.1562 6.64844 10.9219C6.80469 10.6719 6.96875 10.4531 7.14062 10.2656C7.32812 10.0625 7.53125 9.89062 7.75 9.75C7.96875 9.59375 8.23438 9.46094 8.54688 9.35156C8.73438 9.42969 8.89844 9.51562 9.03906 9.60938C9.17969 9.6875 9.30469 9.78906 9.41406 9.91406L9.48438 10.2422C9.51562 10.3516 9.5625 10.4297 9.625 10.4766C9.70312 10.5078 9.76562 10.5234 9.8125 10.5234C10.0156 10.5703 10.1875 10.625 10.3281 10.6875C10.4844 10.7344 10.6484 10.7656 10.8203 10.7812C10.8828 10.875 10.9375 10.9688 10.9844 11.0625C11.0469 11.1562 11.1094 11.2422 11.1719 11.3203C11.4844 11.7734 11.7422 12.2109 11.9453 12.6328C12.1484 13.0547 12.1484 13.5156 11.9453 14.0156L11.9688 14.2734C12.0469 14.3828 12.0859 14.4844 12.0859 14.5781C12.0859 14.6719 12.0703 14.8047 12.0391 14.9766C12.0234 15.1016 12.0078 15.2422 11.9922 15.3984C11.9922 15.5391 12.0156 15.6953 12.0625 15.8672L12.2266 16.0547C12.4766 16.1797 12.7188 16.2422 12.9531 16.2422C13.2656 16.2422 13.5469 16.1719 13.7969 16.0312C14.0469 15.8906 14.2812 15.75 14.5 15.6094C14.6719 15.4844 14.8281 15.3828 14.9688 15.3047C15.125 15.2266 15.2734 15.1719 15.4141 15.1406C15.7422 14.8281 16.0391 14.5547 16.3047 14.3203C16.5859 14.0703 16.875 13.8203 17.1719 13.5703C17.7344 13.1172 18.2812 12.6328 18.8125 12.1172C19.3438 11.5859 19.7656 10.9297 20.0781 10.1484C20.25 10.0391 20.4453 9.98438 20.6641 9.98438C20.8828 9.98438 21.1016 10.0312 21.3203 10.125C21.5391 10.2031 21.7578 10.2969 21.9766 10.4062C22.0234 10.4375 22.0625 10.4609 22.0938 10.4766C22.1406 10.4922 22.1875 10.5156 22.2344 10.5469C22.2344 10.7188 22.3047 10.875 22.4453 11.0156C22.5234 11.0781 22.5781 11.1172 22.6094 11.1328C22.6406 11.1484 22.6719 11.1641 22.7031 11.1797C22.8281 11.2578 22.9297 11.3281 23.0078 11.3906C23.1016 11.4531 23.1719 11.5391 23.2188 11.6484C23.3594 12.0703 23.5938 12.3984 23.9219 12.6328C23.8906 12.8047 23.8984 12.9766 23.9453 13.1484C23.9922 13.3047 24.0469 13.4609 24.1094 13.6172C24.1406 13.6797 24.1641 13.7422 24.1797 13.8047C24.1953 13.8516 24.2188 13.9141 24.25 13.9922L23.7344 13.9453L23.8047 14.4609C23.8516 14.7266 23.8281 15.0234 23.7344 15.3516C23.6562 15.6797 23.5625 15.9375 23.4531 16.125C23.4844 16.5938 23.5 16.9688 23.5 17.25C23.5 17.5156 23.4844 17.7656 23.4531 18C23.4219 18.2344 23.3672 18.4609 23.2891 18.6797C23.2266 18.8828 23.1406 19.1016 23.0312 19.3359C23.0938 20.5234 22.9531 21.6094 22.6094 22.5938C22.2812 23.5781 21.9219 24.5 21.5312 25.3594C21.4844 25.4688 21.4375 25.5703 21.3906 25.6641C21.3438 25.7578 21.3047 25.8516 21.2734 25.9453C21.1016 25.9922 20.9453 26.0469 20.8047 26.1094C20.6641 26.1719 20.5312 26.2422 20.4062 26.3203C20.2344 26.4297 20.0625 26.5234 19.8906 26.6016C19.7188 26.6641 19.5391 26.6953 19.3516 26.6953C18.6016 26.1484 18.2109 25.2031 18.1797 23.8594C18.1641 22.5156 18.4531 20.8047 19.0469 18.7266C19.1562 18.6484 19.2031 18.5312 19.1875 18.375V18.1172L18.9531 18.0938C18.875 18.0938 18.8047 18.1016 18.7422 18.1172C18.6797 18.1328 18.6328 18.2031 18.6016 18.3281C18.1016 18.6875 17.5547 19.0625 16.9609 19.4531C16.3828 19.8281 15.7812 20.1797 15.1562 20.5078C14.5312 20.8203 13.8906 21.0859 13.2344 21.3047C12.5938 21.5078 11.9688 21.6094 11.3594 21.6094C9.79688 21.6094 8.61719 20.8125 7.82031 19.2188L7.60938 18.7969L7.375 19.1719C7.32812 19.25 7.24219 19.4062 7.11719 19.6406C7.00781 19.8594 6.89062 20.1172 6.76562 20.4141C6.65625 20.7109 6.55469 21.0156 6.46094 21.3281C6.38281 21.6406 6.35938 21.9141 6.39062 22.1484C6.20312 22.3203 6.01562 22.5156 5.82812 22.7344C5.65625 22.9531 5.53125 23.2031 5.45312 23.4844C5.42188 23.5625 5.41406 23.6406 5.42969 23.7188C5.44531 23.7812 5.46875 23.8516 5.5 23.9297C5.48438 24.0391 5.45312 24.1172 5.40625 24.1641C5.35938 24.2109 5.30469 24.2578 5.24219 24.3047C5.16406 24.3828 5.08594 24.4688 5.00781 24.5625C4.92969 24.6406 4.85938 24.7344 4.79688 24.8438C4.76562 24.9375 4.74219 25.0391 4.72656 25.1484C4.71094 25.2422 4.69531 25.3281 4.67969 25.4062C4.67969 25.5781 4.65625 25.6953 4.60938 25.7578C4.45312 26.0859 4.3125 26.3594 4.1875 26.5781C4.07812 26.7812 3.96875 26.9375 3.85938 27.0469C3.75 27.1562 3.63281 27.2266 3.50781 27.2578C3.39844 27.3047 3.26562 27.3281 3.10938 27.3281ZM38.1953 13.6641C38.2266 14.0078 38.2812 14.3047 38.3594 14.5547C38.4375 14.8047 38.5234 15.0469 38.6172 15.2812C38.6953 15.5 38.7656 15.7188 38.8281 15.9375C38.9062 16.1406 38.9609 16.3906 38.9922 16.6875C38.8672 17.0938 38.7734 17.4688 38.7109 17.8125C38.6641 18.1562 38.6094 18.5156 38.5469 18.8906C38.2969 19.4375 38.0547 19.9219 37.8203 20.3438C37.5859 20.7656 37.3984 21.1328 37.2578 21.4453C37.1797 21.5234 37.1094 21.6172 37.0469 21.7266C37 21.8203 36.9453 21.9219 36.8828 22.0312C36.8516 22.0781 36.8125 22.1484 36.7656 22.2422C36.7188 22.3359 36.6797 22.3984 36.6484 22.4297L36.1797 22.2656L36.0859 22.8516L35.7578 22.9453L35.5234 23.2266C35.2266 23.7422 34.9141 24.1797 34.5859 24.5391C34.2578 24.8828 33.8828 25.1953 33.4609 25.4766C33.0547 25.7422 32.5859 25.9922 32.0547 26.2266C31.5391 26.4609 30.9531 26.7188 30.2969 27C30.0312 26.9688 29.7969 26.9531 29.5938 26.9531C29.4062 26.9375 29.2266 26.9219 29.0547 26.9062C28.7578 26.9062 28.3906 26.8828 27.9531 26.8359C27.9062 26.7109 27.8359 26.625 27.7422 26.5781C27.6484 26.5312 27.5625 26.5078 27.4844 26.5078C27.2188 26.3828 27.0156 26.2031 26.875 25.9688C26.75 25.7188 26.625 25.4531 26.5 25.1719C26.4219 25 26.3438 24.8438 26.2656 24.7031C26.1875 24.5469 26.1016 24.3906 26.0078 24.2344L26.4062 24.1172L25.8906 23.5547C25.8594 23.5078 25.8203 23.4688 25.7734 23.4375C25.7266 23.3906 25.6875 23.3438 25.6562 23.2969L25.6328 22.9219C25.5859 21.8438 25.5625 20.8594 25.5625 19.9688C25.5781 19.0625 25.7031 18.2578 25.9375 17.5547V17.2969C25.9844 16.9531 26.0312 16.6719 26.0781 16.4531C26.125 16.2188 26.1641 16 26.1953 15.7969C26.2422 15.4531 26.3125 15.1328 26.4062 14.8359C26.625 14.7891 26.7891 14.7031 26.8984 14.5781C27.0078 14.4375 27.1016 14.3125 27.1797 14.2031C27.3984 14.1875 27.5469 14.2188 27.625 14.2969C27.7031 14.375 27.7812 14.5 27.8594 14.6719C27.9375 14.8125 28.0312 14.9688 28.1406 15.1406C28.2656 15.3125 28.4453 15.4453 28.6797 15.5391C28.7109 15.6641 28.75 15.7969 28.7969 15.9375C28.8594 16.0625 28.9219 16.2031 28.9844 16.3594C29.1094 16.625 29.2188 16.9062 29.3125 17.2031C29.4219 17.4844 29.4844 17.7578 29.5 18.0234C29.3438 18.3203 29.2188 18.6641 29.125 19.0547C29.0469 19.4453 28.9922 19.8438 28.9609 20.25C28.9453 20.6406 28.9531 21.0234 28.9844 21.3984C29.0312 21.7578 29.1016 22.0625 29.1953 22.3125L29.3359 22.6172L29.7344 22.5703C30.2031 22.4453 30.625 22.3125 31 22.1719C31.3906 22.0156 31.75 21.8359 32.0781 21.6328C32.4062 21.4297 32.7188 21.1953 33.0156 20.9297C33.3125 20.6484 33.625 20.3281 33.9531 19.9688C34.2812 19.6094 34.5625 19.2031 34.7969 18.75C35.0469 18.2812 35.25 17.7969 35.4062 17.2969C35.5781 16.7969 35.7031 16.3047 35.7812 15.8203C35.875 15.3203 35.9375 14.8516 35.9688 14.4141C36.2344 14.3203 36.3672 14.1328 36.3672 13.8516L36.3203 13.5938C36.2578 13.5 36.2578 13.3906 36.3203 13.2656C36.4141 12.9688 36.6328 12.7422 36.9766 12.5859C37.2266 12.7422 37.4453 12.9141 37.6328 13.1016C37.8359 13.2891 38.0234 13.4766 38.1953 13.6641ZM50.4062 24.7266C50.4375 25.1328 50.3906 25.4688 50.2656 25.7344C50.1406 26 49.9688 26.2266 49.75 26.4141C49.5312 26.6016 49.2812 26.75 49 26.8594C48.7188 26.9688 48.4453 27.0703 48.1797 27.1641C48.0547 27.0859 47.9297 27.0078 47.8047 26.9297C47.6953 26.8359 47.5625 26.7656 47.4062 26.7188C47.2031 26.3438 47.0078 26.0156 46.8203 25.7344C46.6328 25.4375 46.5469 25.1016 46.5625 24.7266C46.5625 24.7109 46.5703 24.625 46.5859 24.4688C46.6172 24.3125 46.6484 24.1406 46.6797 23.9531C46.7266 23.7656 46.7578 23.5938 46.7734 23.4375C46.8047 23.2656 46.8203 23.1719 46.8203 23.1562C46.4609 23.1875 46.0859 23.2656 45.6953 23.3906C45.3047 23.5156 44.9219 23.6641 44.5469 23.8359C44.1875 24.0078 43.8438 24.1797 43.5156 24.3516C43.2031 24.5234 42.9453 24.6719 42.7422 24.7969C42.7422 24.8438 42.7109 24.9609 42.6484 25.1484C42.5859 25.3203 42.5078 25.5078 42.4141 25.7109C42.3203 25.8984 42.2188 26.0703 42.1094 26.2266C42 26.3828 41.8906 26.4609 41.7812 26.4609C41.7969 26.5078 41.8203 26.5547 41.8516 26.6016C41.8828 26.6484 41.8828 26.7109 41.8516 26.7891C41.6328 26.8516 41.4375 26.9297 41.2656 27.0234C41.0938 27.1328 40.9141 27.2188 40.7266 27.2812C40.5391 27.3594 40.3359 27.3984 40.1172 27.3984C39.8984 27.3984 39.6406 27.3203 39.3438 27.1641C39.3438 27.0703 39.3047 26.9922 39.2266 26.9297C39.1484 26.8516 39.0625 26.7891 38.9688 26.7422C38.8906 26.6797 38.8203 26.6328 38.7578 26.6016C38.6953 26.5547 38.6641 26.5156 38.6641 26.4844C38.5859 26.5 38.5547 26.4453 38.5703 26.3203C38.5859 26.1953 38.6484 26.1641 38.7578 26.2266C38.5859 26.0078 38.4766 25.8203 38.4297 25.6641C38.3984 25.4922 38.3125 25.2812 38.1719 25.0312C38.2031 25 38.2344 24.9453 38.2656 24.8672C38.2812 24.7891 38.2969 24.7188 38.3125 24.6562C38.3281 24.5938 38.3516 24.5469 38.3828 24.5156C38.4141 24.4844 38.4531 24.4922 38.5 24.5391C38.4688 24.3984 38.4688 24.2812 38.5 24.1875C38.5312 24.0938 38.5625 24.0078 38.5938 23.9297C38.625 23.8516 38.6484 23.7734 38.6641 23.6953C38.6797 23.6172 38.6562 23.5312 38.5938 23.4375C38.8438 23.0938 39.0078 22.7266 39.0859 22.3359C39.1641 21.9297 39.2109 21.5625 39.2266 21.2344C39.3359 21.125 39.4297 20.9688 39.5078 20.7656C39.6016 20.5625 39.6719 20.3594 39.7188 20.1562C39.7656 19.9375 39.7812 19.7344 39.7656 19.5469C39.7656 19.3438 39.7422 19.1797 39.6953 19.0547C39.7109 18.9766 39.7969 18.9531 39.9531 18.9844C40.0469 18.4688 40.1094 17.8906 40.1406 17.25C40.1875 16.5938 40.2578 15.9766 40.3516 15.3984C40.4453 14.8047 40.6016 14.2891 40.8203 13.8516C41.0391 13.3984 41.3906 13.1016 41.875 12.9609C41.9688 13.2891 42.0859 13.5781 42.2266 13.8281C42.3828 14.0781 42.5469 14.3203 42.7188 14.5547C42.9062 14.7734 43.0859 15 43.2578 15.2344C43.4453 15.4688 43.6172 15.7344 43.7734 16.0312C43.7578 16.3281 43.7266 16.6719 43.6797 17.0625C43.6328 17.4531 43.5703 17.8516 43.4922 18.2578C43.4297 18.6641 43.3594 19.0547 43.2812 19.4297C43.2188 19.8047 43.1562 20.125 43.0938 20.3906C43.1094 20.4688 43.1484 20.5156 43.2109 20.5312C43.2891 20.5469 43.3047 20.6172 43.2578 20.7422C43.6328 20.6484 44.0234 20.5625 44.4297 20.4844C44.8359 20.4062 45.2422 20.3203 45.6484 20.2266C46.0547 20.1328 46.4453 20.0312 46.8203 19.9219C47.2109 19.7969 47.5703 19.6484 47.8984 19.4766C47.9766 18.8672 48.0781 18.2578 48.2031 17.6484C48.3281 17.0391 48.3438 16.4141 48.25 15.7734C48.3281 15.7109 48.3906 15.6328 48.4375 15.5391C48.4844 15.4453 48.5625 15.3828 48.6719 15.3516C48.5938 15.0547 48.5625 14.7422 48.5781 14.4141C48.5938 14.0859 48.6484 13.7734 48.7422 13.4766C48.8516 13.1797 49 12.9297 49.1875 12.7266C49.3906 12.5078 49.6328 12.3672 49.9141 12.3047C50.0859 12.5547 50.2344 12.8281 50.3594 13.125C50.4844 13.4062 50.6094 13.6953 50.7344 13.9922C50.875 14.2734 51.0156 14.5469 51.1562 14.8125C51.3125 15.0625 51.5078 15.2812 51.7422 15.4688C51.7891 15.9219 51.8203 16.3906 51.8359 16.875C51.8672 17.3594 51.8906 17.8516 51.9062 18.3516C51.7812 18.9453 51.6406 19.5234 51.4844 20.0859C51.3438 20.6328 51.2422 21.2188 51.1797 21.8438C51.0703 21.9688 50.9844 22.1094 50.9219 22.2656C50.8594 22.4219 50.7969 22.5859 50.7344 22.7578C50.6719 22.9141 50.6016 23.0703 50.5234 23.2266C50.4453 23.3672 50.3516 23.4922 50.2422 23.6016C50.3047 23.7891 50.3125 23.9688 50.2656 24.1406C50.2344 24.2969 50.2812 24.4922 50.4062 24.7266ZM64.7734 25.0312C64.6797 25.2969 64.5391 25.5703 64.3516 25.8516C64.1797 26.1172 63.9688 26.3594 63.7188 26.5781C63.4844 26.7812 63.2188 26.9531 62.9219 27.0938C62.625 27.2344 62.3125 27.3125 61.9844 27.3281C61.7812 27.2812 61.6406 27.2266 61.5625 27.1641C61.5 27.1172 61.4297 27.0703 61.3516 27.0234C61.3047 26.9922 61.2578 26.9688 61.2109 26.9531C61.1797 26.9219 61.1484 26.8984 61.1172 26.8828L60.8359 26.7656L60.9297 26.4609C60.9609 26.3359 60.9531 26.2422 60.9062 26.1797C60.8594 26.1016 60.7656 26 60.625 25.875C60.5781 25.8281 60.5312 25.7812 60.4844 25.7344C60.4375 25.6875 60.3984 25.6406 60.3672 25.5938L59.9688 25.1484L60.6016 24.9844C60.9922 24.875 61.25 24.7344 61.375 24.5625C61.5156 24.3906 61.5703 24.1016 61.5391 23.6953C61.2266 23.6328 60.9609 23.625 60.7422 23.6719C60.5391 23.7188 60.3281 23.7734 60.1094 23.8359C59.8281 23.9141 59.5391 23.9844 59.2422 24.0469C58.9609 24.0938 58.6484 24.1172 58.3047 24.1172C58.1797 24.1172 58.0625 24.1172 57.9531 24.1172C57.8438 24.1016 57.7266 24.0859 57.6016 24.0703L57.3672 24.0234C57.3359 23.8516 57.3047 23.7578 57.2734 23.7422C57.2422 23.7109 57.2109 23.6797 57.1797 23.6484C57.1016 23.5703 57.0156 23.4688 56.9219 23.3438C56.8438 23.2031 56.8281 23.0312 56.875 22.8281C56.7969 22.6875 56.75 22.5469 56.7344 22.4062C56.6406 22.5938 56.5703 22.7891 56.5234 22.9922L56.4297 23.2266L56.1953 23.2734C56.1641 23.2891 56.1406 23.3281 56.125 23.3906C56.1094 23.4375 56.1016 23.4766 56.1016 23.5078L55.9844 23.9062C55.9531 23.9375 55.9219 23.9688 55.8906 24C55.8594 24.0156 55.8281 24.0391 55.7969 24.0703C55.7656 24.2109 55.7266 24.3516 55.6797 24.4922C55.6328 24.6328 55.5859 24.7656 55.5391 24.8906C55.4609 25.0938 55.3906 25.2969 55.3281 25.5C55.2812 25.6875 55.2656 25.875 55.2812 26.0625L55.1875 26.3203C55.1094 26.4141 55.0234 26.4922 54.9297 26.5547C54.8359 26.6016 54.7422 26.6484 54.6484 26.6953C54.6172 26.7266 54.5703 26.7578 54.5078 26.7891C54.4609 26.8047 54.4219 26.8203 54.3906 26.8359L54.3203 27.0938L54.0391 27.1406C53.8672 27.1719 53.7422 27.1953 53.6641 27.2109C53.6016 27.2266 53.5234 27.2344 53.4297 27.2344L53.1953 27.2109C53.0234 27.0703 52.8906 26.9609 52.7969 26.8828C52.7031 26.7891 52.5938 26.7031 52.4688 26.625C52.3281 26.4375 52.25 26.2969 52.2344 26.2031C52.2188 26.1094 52.2031 26.0234 52.1875 25.9453C52.1562 25.8516 52.1406 25.7734 52.1406 25.7109C52.125 25.6484 52.1016 25.6016 52.0703 25.5703L51.7656 25.2891L52.0234 25.0781L52.0469 24.6797C52.3594 23.8828 52.6875 23.1172 53.0312 22.3828C53.3906 21.6484 53.7578 20.8984 54.1328 20.1328C54.2578 19.8828 54.375 19.6328 54.4844 19.3828C54.6094 19.1328 54.7344 18.8828 54.8594 18.6328C54.8438 18.5859 54.8359 18.5312 54.8359 18.4688C54.8359 18.4062 54.8516 18.3359 54.8828 18.2578C55.0547 17.9922 55.1953 17.7578 55.3047 17.5547C55.4141 17.3359 55.5234 17.1172 55.6328 16.8984C55.7578 16.6328 55.8828 16.375 56.0078 16.125C56.1484 15.875 56.3203 15.6172 56.5234 15.3516L56.8984 15.1875C56.9453 15.1719 57 15.1562 57.0625 15.1406C57.125 15.1094 57.1953 15.0938 57.2734 15.0938L57.625 15.1406C58.0625 14.9375 58.4453 14.6562 58.7734 14.2969C59.1016 13.9219 59.4375 13.4766 59.7812 12.9609L60.0156 12.6328L60.3203 12.8203C60.3984 12.8672 60.5078 12.9141 60.6484 12.9609C60.7891 12.9922 60.9375 13.0312 61.0938 13.0781C61.375 13.1406 61.6406 13.2109 61.8906 13.2891C62.1406 13.3672 62.3438 13.4844 62.5 13.6406C62.5938 13.8906 62.6484 14.0781 62.6641 14.2031C62.6797 14.3281 62.7031 14.4531 62.7344 14.5781C62.7812 14.8438 62.8203 15.1094 62.8516 15.375C62.8984 15.6406 62.9297 15.9375 62.9453 16.2656C63.0234 16.5312 63.0859 16.7969 63.1328 17.0625C63.1953 17.3125 63.25 17.5703 63.2969 17.8359C63.375 18.2109 63.4531 18.5781 63.5312 18.9375C63.6094 19.2812 63.7109 19.6094 63.8359 19.9219C63.9609 19.9219 64.0391 19.9297 64.0703 19.9453C64.1484 19.9141 64.2266 19.8906 64.3047 19.875C64.3984 19.8594 64.5 19.8438 64.6094 19.8281L64.8672 19.8047L64.9609 20.0391C64.9766 20.1172 65.0547 20.1953 65.1953 20.2734C65.3984 20.2891 65.5469 20.3359 65.6406 20.4141C65.7344 20.4766 65.8203 20.5469 65.8984 20.625C65.9609 20.6875 66.0234 20.7344 66.0859 20.7656L66.4375 20.9062L66.25 21.2578C66.0938 21.5391 65.8672 21.8125 65.5703 22.0781C65.2891 22.3281 64.9688 22.5391 64.6094 22.7109C64.625 22.8047 64.6328 22.8984 64.6328 22.9922C64.6484 23.0703 64.6719 23.1562 64.7031 23.25C64.75 23.5156 64.7891 23.7891 64.8203 24.0703C64.8516 24.3516 64.8516 24.6406 64.8203 24.9375L64.7734 25.0312ZM58 20.9766C58.4688 20.9453 58.8906 20.9141 59.2656 20.8828C59.6562 20.8359 60.0859 20.7656 60.5547 20.6719C60.4453 20.2031 60.3281 19.7188 60.2031 19.2188C60.0781 18.7031 59.9453 18.1953 59.8047 17.6953L59.6641 17.9297C59.3516 18.2578 59.0469 18.625 58.75 19.0312C58.4688 19.4375 58.2266 19.8203 58.0234 20.1797C57.9297 20.3203 57.8359 20.4609 57.7422 20.6016C57.6484 20.7422 57.5625 20.8828 57.4844 21.0234C57.5781 21.0078 57.6641 21 57.7422 21C57.8359 21 57.9219 20.9922 58 20.9766ZM82.5391 26.5781C82.3828 26.6562 82.2344 26.7266 82.0938 26.7891C81.9688 26.8516 81.8203 26.8828 81.6484 26.8828C81.0391 26.4297 80.7188 25.6406 80.6875 24.5156C80.6719 23.3906 80.9141 21.9609 81.4141 20.2266C81.4922 20.1797 81.5312 20.0859 81.5312 19.9453L81.3203 19.7109C81.2578 19.7109 81.1953 19.7188 81.1328 19.7344C81.0859 19.75 81.0469 19.8047 81.0156 19.8984C80.6094 20.1953 80.1641 20.5078 79.6797 20.8359C79.1953 21.1484 78.6875 21.4453 78.1562 21.7266C77.6406 21.9922 77.1094 22.2109 76.5625 22.3828C76.0312 22.5547 75.5078 22.6406 74.9922 22.6406C73.6797 22.6406 72.6953 21.9766 72.0391 20.6484L71.8516 20.2969L71.6641 20.6016C71.6172 20.6641 71.5469 20.7969 71.4531 21C71.3594 21.1875 71.2656 21.4062 71.1719 21.6562C71.0781 21.9062 70.9922 22.1641 70.9141 22.4297C70.8516 22.6797 70.8281 22.8984 70.8438 23.0859C70.7031 23.2266 70.5547 23.3906 70.3984 23.5781C70.2422 23.7656 70.125 23.9766 70.0469 24.2109C70.0156 24.3359 70.0312 24.4531 70.0938 24.5625C70.0625 24.7031 69.9922 24.8125 69.8828 24.8906C69.8203 24.9688 69.75 25.0469 69.6719 25.125C69.6094 25.1875 69.5547 25.2578 69.5078 25.3359C69.4766 25.4141 69.4531 25.4922 69.4375 25.5703C69.4375 25.6484 69.4297 25.7266 69.4141 25.8047C69.4141 25.9141 69.3984 26.0156 69.3672 26.1094C69.1016 26.6562 68.8906 27.0078 68.7344 27.1641C68.5781 27.3359 68.3672 27.4219 68.1016 27.4219C67.9766 27.4219 67.7734 27.3984 67.4922 27.3516C67.2891 27.1328 67.1016 26.8359 66.9297 26.4609C66.7734 26.0703 66.6484 25.6562 66.5547 25.2188C66.4766 24.7812 66.4375 24.3438 66.4375 23.9062C66.4531 23.4531 66.5312 23.0625 66.6719 22.7344C66.6719 22.7188 66.7344 22.5625 66.8594 22.2656C66.9844 21.9688 67.1406 21.5859 67.3281 21.1172C67.5312 20.6484 67.7578 20.1328 68.0078 19.5703C68.2578 18.9922 68.5078 18.4375 68.7578 17.9062C69.0078 17.3594 69.2422 16.8594 69.4609 16.4062C69.6953 15.9531 69.8906 15.6094 70.0469 15.375C70.1719 15.1875 70.2812 15.0156 70.375 14.8594C70.4844 14.6875 70.5859 14.5234 70.6797 14.3672C70.9609 13.8828 71.2266 13.4844 71.4766 13.1719C71.7422 12.8438 72.125 12.5859 72.625 12.3984C72.9688 12.5391 73.2188 12.7031 73.375 12.8906L73.4219 13.1484C73.4844 13.3047 73.5781 13.3828 73.7031 13.3828C73.875 13.4297 74.0156 13.4766 74.125 13.5234C74.25 13.5547 74.3828 13.5859 74.5234 13.6172C74.6328 13.7422 74.7344 13.8906 74.8281 14.0625C74.9531 14.25 75.0703 14.4375 75.1797 14.625C75.3047 14.7969 75.3984 14.9766 75.4609 15.1641C75.5391 15.3359 75.5781 15.5156 75.5781 15.7031C75.5938 15.8906 75.5625 16.0859 75.4844 16.2891L75.5078 16.5234C75.5859 16.6641 75.6016 16.8594 75.5547 17.1094C75.5391 17.2188 75.5312 17.3359 75.5312 17.4609C75.5312 17.5703 75.5469 17.6953 75.5781 17.8359C75.8594 18.0547 76.1094 18.1641 76.3281 18.1641C76.5781 18.1641 76.8047 18.1094 77.0078 18C77.2266 17.875 77.4297 17.75 77.6172 17.625C77.7422 17.5312 77.8672 17.4531 77.9922 17.3906C78.1172 17.3125 78.2422 17.2656 78.3672 17.25C78.6484 16.9844 78.8984 16.75 79.1172 16.5469C79.3516 16.3438 79.5938 16.1406 79.8438 15.9375C80.3125 15.5625 80.7656 15.1562 81.2031 14.7188C81.6406 14.2812 81.9922 13.7344 82.2578 13.0781C82.4141 12.9844 82.5781 12.9375 82.75 12.9375C82.9219 12.9375 83.1016 12.9766 83.2891 13.0547C83.4766 13.1328 83.6562 13.2109 83.8281 13.2891C83.875 13.3203 83.9141 13.3438 83.9453 13.3594C83.9922 13.375 84.0312 13.3906 84.0625 13.4062C84.0625 13.5625 84.125 13.6953 84.25 13.8047C84.3125 13.8516 84.3516 13.8828 84.3672 13.8984C84.3828 13.9141 84.4062 13.9297 84.4375 13.9453C84.6719 14.0703 84.8203 14.1953 84.8828 14.3203C84.9922 14.6797 85.1875 14.9531 85.4688 15.1406C85.4375 15.2969 85.4375 15.4453 85.4688 15.5859C85.5156 15.7109 85.5703 15.8438 85.6328 15.9844C85.6484 16.0312 85.6641 16.0781 85.6797 16.125C85.6953 16.1719 85.7188 16.2266 85.75 16.2891L85.3047 16.2422L85.375 16.6875C85.4062 16.9062 85.3828 17.1484 85.3047 17.4141C85.2422 17.6797 85.1641 17.8906 85.0703 18.0469C85.0859 18.4531 85.0938 18.7734 85.0938 19.0078C85.1094 19.2266 85.1016 19.4375 85.0703 19.6406C85.0391 19.8281 84.9922 20.0078 84.9297 20.1797C84.8828 20.3516 84.8125 20.5391 84.7188 20.7422C84.7812 21.7422 84.6641 22.6562 84.3672 23.4844C84.0859 24.2969 83.7891 25.0625 83.4766 25.7812C83.4453 25.8594 83.4062 25.9375 83.3594 26.0156C83.3281 26.0938 83.2969 26.1719 83.2656 26.25C83.125 26.2969 83 26.3516 82.8906 26.4141C82.7812 26.4609 82.6641 26.5156 82.5391 26.5781ZM102.086 26.5781C101.93 26.6562 101.781 26.7266 101.641 26.7891C101.516 26.8516 101.367 26.8828 101.195 26.8828C100.586 26.4297 100.266 25.6406 100.234 24.5156C100.219 23.3906 100.461 21.9609 100.961 20.2266C101.039 20.1797 101.078 20.0859 101.078 19.9453L100.867 19.7109C100.805 19.7109 100.742 19.7188 100.68 19.7344C100.633 19.75 100.594 19.8047 100.562 19.8984C100.156 20.1953 99.7109 20.5078 99.2266 20.8359C98.7422 21.1484 98.2344 21.4453 97.7031 21.7266C97.1875 21.9922 96.6562 22.2109 96.1094 22.3828C95.5781 22.5547 95.0547 22.6406 94.5391 22.6406C93.2266 22.6406 92.2422 21.9766 91.5859 20.6484L91.3984 20.2969L91.2109 20.6016C91.1641 20.6641 91.0938 20.7969 91 21C90.9062 21.1875 90.8125 21.4062 90.7188 21.6562C90.625 21.9062 90.5391 22.1641 90.4609 22.4297C90.3984 22.6797 90.375 22.8984 90.3906 23.0859C90.25 23.2266 90.1016 23.3906 89.9453 23.5781C89.7891 23.7656 89.6719 23.9766 89.5938 24.2109C89.5625 24.3359 89.5781 24.4531 89.6406 24.5625C89.6094 24.7031 89.5391 24.8125 89.4297 24.8906C89.3672 24.9688 89.2969 25.0469 89.2188 25.125C89.1562 25.1875 89.1016 25.2578 89.0547 25.3359C89.0234 25.4141 89 25.4922 88.9844 25.5703C88.9844 25.6484 88.9766 25.7266 88.9609 25.8047C88.9609 25.9141 88.9453 26.0156 88.9141 26.1094C88.6484 26.6562 88.4375 27.0078 88.2812 27.1641C88.125 27.3359 87.9141 27.4219 87.6484 27.4219C87.5234 27.4219 87.3203 27.3984 87.0391 27.3516C86.8359 27.1328 86.6484 26.8359 86.4766 26.4609C86.3203 26.0703 86.1953 25.6562 86.1016 25.2188C86.0234 24.7812 85.9844 24.3438 85.9844 23.9062C86 23.4531 86.0781 23.0625 86.2188 22.7344C86.2188 22.7188 86.2812 22.5625 86.4062 22.2656C86.5312 21.9688 86.6875 21.5859 86.875 21.1172C87.0781 20.6484 87.3047 20.1328 87.5547 19.5703C87.8047 18.9922 88.0547 18.4375 88.3047 17.9062C88.5547 17.3594 88.7891 16.8594 89.0078 16.4062C89.2422 15.9531 89.4375 15.6094 89.5938 15.375C89.7188 15.1875 89.8281 15.0156 89.9219 14.8594C90.0312 14.6875 90.1328 14.5234 90.2266 14.3672C90.5078 13.8828 90.7734 13.4844 91.0234 13.1719C91.2891 12.8438 91.6719 12.5859 92.1719 12.3984C92.5156 12.5391 92.7656 12.7031 92.9219 12.8906L92.9688 13.1484C93.0312 13.3047 93.125 13.3828 93.25 13.3828C93.4219 13.4297 93.5625 13.4766 93.6719 13.5234C93.7969 13.5547 93.9297 13.5859 94.0703 13.6172C94.1797 13.7422 94.2812 13.8906 94.375 14.0625C94.5 14.25 94.6172 14.4375 94.7266 14.625C94.8516 14.7969 94.9453 14.9766 95.0078 15.1641C95.0859 15.3359 95.125 15.5156 95.125 15.7031C95.1406 15.8906 95.1094 16.0859 95.0312 16.2891L95.0547 16.5234C95.1328 16.6641 95.1484 16.8594 95.1016 17.1094C95.0859 17.2188 95.0781 17.3359 95.0781 17.4609C95.0781 17.5703 95.0938 17.6953 95.125 17.8359C95.4062 18.0547 95.6562 18.1641 95.875 18.1641C96.125 18.1641 96.3516 18.1094 96.5547 18C96.7734 17.875 96.9766 17.75 97.1641 17.625C97.2891 17.5312 97.4141 17.4531 97.5391 17.3906C97.6641 17.3125 97.7891 17.2656 97.9141 17.25C98.1953 16.9844 98.4453 16.75 98.6641 16.5469C98.8984 16.3438 99.1406 16.1406 99.3906 15.9375C99.8594 15.5625 100.312 15.1562 100.75 14.7188C101.188 14.2812 101.539 13.7344 101.805 13.0781C101.961 12.9844 102.125 12.9375 102.297 12.9375C102.469 12.9375 102.648 12.9766 102.836 13.0547C103.023 13.1328 103.203 13.2109 103.375 13.2891C103.422 13.3203 103.461 13.3438 103.492 13.3594C103.539 13.375 103.578 13.3906 103.609 13.4062C103.609 13.5625 103.672 13.6953 103.797 13.8047C103.859 13.8516 103.898 13.8828 103.914 13.8984C103.93 13.9141 103.953 13.9297 103.984 13.9453C104.219 14.0703 104.367 14.1953 104.43 14.3203C104.539 14.6797 104.734 14.9531 105.016 15.1406C104.984 15.2969 104.984 15.4453 105.016 15.5859C105.062 15.7109 105.117 15.8438 105.18 15.9844C105.195 16.0312 105.211 16.0781 105.227 16.125C105.242 16.1719 105.266 16.2266 105.297 16.2891L104.852 16.2422L104.922 16.6875C104.953 16.9062 104.93 17.1484 104.852 17.4141C104.789 17.6797 104.711 17.8906 104.617 18.0469C104.633 18.4531 104.641 18.7734 104.641 19.0078C104.656 19.2266 104.648 19.4375 104.617 19.6406C104.586 19.8281 104.539 20.0078 104.477 20.1797C104.43 20.3516 104.359 20.5391 104.266 20.7422C104.328 21.7422 104.211 22.6562 103.914 23.4844C103.633 24.2969 103.336 25.0625 103.023 25.7812C102.992 25.8594 102.953 25.9375 102.906 26.0156C102.875 26.0938 102.844 26.1719 102.812 26.25C102.672 26.2969 102.547 26.3516 102.438 26.4141C102.328 26.4609 102.211 26.5156 102.086 26.5781ZM117.812 25.0312C117.719 25.2969 117.578 25.5703 117.391 25.8516C117.219 26.1172 117.008 26.3594 116.758 26.5781C116.523 26.7812 116.258 26.9531 115.961 27.0938C115.664 27.2344 115.352 27.3125 115.023 27.3281C114.82 27.2812 114.68 27.2266 114.602 27.1641C114.539 27.1172 114.469 27.0703 114.391 27.0234C114.344 26.9922 114.297 26.9688 114.25 26.9531C114.219 26.9219 114.188 26.8984 114.156 26.8828L113.875 26.7656L113.969 26.4609C114 26.3359 113.992 26.2422 113.945 26.1797C113.898 26.1016 113.805 26 113.664 25.875C113.617 25.8281 113.57 25.7812 113.523 25.7344C113.477 25.6875 113.438 25.6406 113.406 25.5938L113.008 25.1484L113.641 24.9844C114.031 24.875 114.289 24.7344 114.414 24.5625C114.555 24.3906 114.609 24.1016 114.578 23.6953C114.266 23.6328 114 23.625 113.781 23.6719C113.578 23.7188 113.367 23.7734 113.148 23.8359C112.867 23.9141 112.578 23.9844 112.281 24.0469C112 24.0938 111.688 24.1172 111.344 24.1172C111.219 24.1172 111.102 24.1172 110.992 24.1172C110.883 24.1016 110.766 24.0859 110.641 24.0703L110.406 24.0234C110.375 23.8516 110.344 23.7578 110.312 23.7422C110.281 23.7109 110.25 23.6797 110.219 23.6484C110.141 23.5703 110.055 23.4688 109.961 23.3438C109.883 23.2031 109.867 23.0312 109.914 22.8281C109.836 22.6875 109.789 22.5469 109.773 22.4062C109.68 22.5938 109.609 22.7891 109.562 22.9922L109.469 23.2266L109.234 23.2734C109.203 23.2891 109.18 23.3281 109.164 23.3906C109.148 23.4375 109.141 23.4766 109.141 23.5078L109.023 23.9062C108.992 23.9375 108.961 23.9688 108.93 24C108.898 24.0156 108.867 24.0391 108.836 24.0703C108.805 24.2109 108.766 24.3516 108.719 24.4922C108.672 24.6328 108.625 24.7656 108.578 24.8906C108.5 25.0938 108.43 25.2969 108.367 25.5C108.32 25.6875 108.305 25.875 108.32 26.0625L108.227 26.3203C108.148 26.4141 108.062 26.4922 107.969 26.5547C107.875 26.6016 107.781 26.6484 107.688 26.6953C107.656 26.7266 107.609 26.7578 107.547 26.7891C107.5 26.8047 107.461 26.8203 107.43 26.8359L107.359 27.0938L107.078 27.1406C106.906 27.1719 106.781 27.1953 106.703 27.2109C106.641 27.2266 106.562 27.2344 106.469 27.2344L106.234 27.2109C106.062 27.0703 105.93 26.9609 105.836 26.8828C105.742 26.7891 105.633 26.7031 105.508 26.625C105.367 26.4375 105.289 26.2969 105.273 26.2031C105.258 26.1094 105.242 26.0234 105.227 25.9453C105.195 25.8516 105.18 25.7734 105.18 25.7109C105.164 25.6484 105.141 25.6016 105.109 25.5703L104.805 25.2891L105.062 25.0781L105.086 24.6797C105.398 23.8828 105.727 23.1172 106.07 22.3828C106.43 21.6484 106.797 20.8984 107.172 20.1328C107.297 19.8828 107.414 19.6328 107.523 19.3828C107.648 19.1328 107.773 18.8828 107.898 18.6328C107.883 18.5859 107.875 18.5312 107.875 18.4688C107.875 18.4062 107.891 18.3359 107.922 18.2578C108.094 17.9922 108.234 17.7578 108.344 17.5547C108.453 17.3359 108.562 17.1172 108.672 16.8984C108.797 16.6328 108.922 16.375 109.047 16.125C109.188 15.875 109.359 15.6172 109.562 15.3516L109.938 15.1875C109.984 15.1719 110.039 15.1562 110.102 15.1406C110.164 15.1094 110.234 15.0938 110.312 15.0938L110.664 15.1406C111.102 14.9375 111.484 14.6562 111.812 14.2969C112.141 13.9219 112.477 13.4766 112.82 12.9609L113.055 12.6328L113.359 12.8203C113.438 12.8672 113.547 12.9141 113.688 12.9609C113.828 12.9922 113.977 13.0312 114.133 13.0781C114.414 13.1406 114.68 13.2109 114.93 13.2891C115.18 13.3672 115.383 13.4844 115.539 13.6406C115.633 13.8906 115.688 14.0781 115.703 14.2031C115.719 14.3281 115.742 14.4531 115.773 14.5781C115.82 14.8438 115.859 15.1094 115.891 15.375C115.938 15.6406 115.969 15.9375 115.984 16.2656C116.062 16.5312 116.125 16.7969 116.172 17.0625C116.234 17.3125 116.289 17.5703 116.336 17.8359C116.414 18.2109 116.492 18.5781 116.57 18.9375C116.648 19.2812 116.75 19.6094 116.875 19.9219C117 19.9219 117.078 19.9297 117.109 19.9453C117.188 19.9141 117.266 19.8906 117.344 19.875C117.438 19.8594 117.539 19.8438 117.648 19.8281L117.906 19.8047L118 20.0391C118.016 20.1172 118.094 20.1953 118.234 20.2734C118.438 20.2891 118.586 20.3359 118.68 20.4141C118.773 20.4766 118.859 20.5469 118.938 20.625C119 20.6875 119.062 20.7344 119.125 20.7656L119.477 20.9062L119.289 21.2578C119.133 21.5391 118.906 21.8125 118.609 22.0781C118.328 22.3281 118.008 22.5391 117.648 22.7109C117.664 22.8047 117.672 22.8984 117.672 22.9922C117.688 23.0703 117.711 23.1562 117.742 23.25C117.789 23.5156 117.828 23.7891 117.859 24.0703C117.891 24.3516 117.891 24.6406 117.859 24.9375L117.812 25.0312ZM111.039 20.9766C111.508 20.9453 111.93 20.9141 112.305 20.8828C112.695 20.8359 113.125 20.7656 113.594 20.6719C113.484 20.2031 113.367 19.7188 113.242 19.2188C113.117 18.7031 112.984 18.1953 112.844 17.6953L112.703 17.9297C112.391 18.2578 112.086 18.625 111.789 19.0312C111.508 19.4375 111.266 19.8203 111.062 20.1797C110.969 20.3203 110.875 20.4609 110.781 20.6016C110.688 20.7422 110.602 20.8828 110.523 21.0234C110.617 21.0078 110.703 21 110.781 21C110.875 21 110.961 20.9922 111.039 20.9766ZM130.914 20.6719C130.898 20.75 130.883 20.8203 130.867 20.8828C130.852 20.9297 130.836 20.9766 130.82 21.0234C130.805 21.0703 130.797 21.1328 130.797 21.2109C130.797 21.2734 130.797 21.3594 130.797 21.4688C130.328 22.2969 129.734 22.9922 129.016 23.5547C128.312 24.1172 127.531 24.6172 126.672 25.0547C125.828 25.4766 124.945 25.8672 124.023 26.2266C123.102 26.5703 122.203 26.9453 121.328 27.3516C120.953 27.2578 120.664 27.1016 120.461 26.8828C120.273 26.6641 120.125 26.4141 120.016 26.1328C119.922 25.8359 119.852 25.5156 119.805 25.1719C119.773 24.8125 119.742 24.4453 119.711 24.0703C119.758 23.8984 119.82 23.7578 119.898 23.6484C119.992 23.5234 120.039 23.3516 120.039 23.1328C120.164 22.7266 120.289 22.3281 120.414 21.9375C120.539 21.5469 120.617 21.1484 120.648 20.7422C120.695 20.6172 120.781 20.5312 120.906 20.4844C120.984 19.7344 120.984 18.9766 120.906 18.2109C120.844 17.4297 120.719 16.7031 120.531 16.0312C120.547 15.875 120.562 15.7656 120.578 15.7031C120.609 15.625 120.609 15.5703 120.578 15.5391C120.562 15.4141 120.602 15.3516 120.695 15.3516C120.805 15.3516 120.914 15.3516 121.023 15.3516C121.023 15.1172 120.977 14.8828 120.883 14.6484C120.805 14.4141 120.727 14.1484 120.648 13.8516C120.758 13.6172 120.828 13.3906 120.859 13.1719C120.891 12.9375 120.961 12.7344 121.07 12.5625C121.914 12.8281 122.719 13.1484 123.484 13.5234C124.266 13.8984 125.031 14.1719 125.781 14.3438C126.344 14.75 126.922 15.1562 127.516 15.5625C128.109 15.9531 128.648 16.3906 129.133 16.875C129.617 17.3438 130.023 17.8828 130.352 18.4922C130.68 19.1016 130.867 19.8281 130.914 20.6719ZM125.359 21.9609C125.688 21.8359 126.008 21.7031 126.32 21.5625C126.648 21.4219 126.945 21.2656 127.211 21.0938C127.492 20.9062 127.742 20.6953 127.961 20.4609C128.18 20.2266 128.359 19.9453 128.5 19.6172C128.406 19.4297 128.281 19.2656 128.125 19.125C127.969 18.9688 127.812 18.8281 127.656 18.7031C127.5 18.5625 127.344 18.4219 127.188 18.2812C127.047 18.1406 126.93 17.9688 126.836 17.7656C126.633 17.7344 126.453 17.6797 126.297 17.6016C126.141 17.5078 125.984 17.4219 125.828 17.3438C125.688 17.25 125.531 17.1641 125.359 17.0859C125.203 17.0078 125.016 16.9609 124.797 16.9453C124.453 16.7734 124.141 16.6484 123.859 16.5703C123.594 16.4922 123.391 16.3906 123.25 16.2656C123.141 16.2656 123.055 16.2891 122.992 16.3359C123.148 16.9297 123.266 17.4922 123.344 18.0234C123.422 18.5391 123.461 19.0625 123.461 19.5938C123.477 20.1094 123.453 20.6406 123.391 21.1875C123.328 21.7344 123.242 22.3281 123.133 22.9688C123.289 22.9531 123.43 22.9219 123.555 22.875C123.695 22.8125 123.828 22.75 123.953 22.6875C124.094 22.625 124.234 22.5703 124.375 22.5234C124.531 22.4609 124.711 22.4219 124.914 22.4062C124.961 22.3125 125.023 22.2344 125.102 22.1719C125.195 22.1094 125.281 22.0391 125.359 21.9609ZM142.469 27.2578C142.016 27.1484 141.664 26.9688 141.414 26.7188C141.18 26.4531 141 26.1484 140.875 25.8047C140.766 25.4453 140.688 25.0547 140.641 24.6328C140.609 24.2109 140.57 23.7734 140.523 23.3203C140.586 23.1172 140.664 22.9453 140.758 22.8047C140.867 22.6641 140.914 22.4688 140.898 22.2188C141.07 21.7188 141.227 21.2344 141.367 20.7656C141.508 20.2969 141.602 19.8125 141.648 19.3125C141.742 19.1719 141.836 19.0781 141.93 19.0312C142.055 18.1406 142.07 17.2266 141.977 16.2891C141.883 15.3516 141.727 14.4844 141.508 13.6875C141.523 13.5156 141.547 13.3906 141.578 13.3125C141.609 13.2188 141.609 13.1406 141.578 13.0781C141.547 12.9375 141.594 12.8672 141.719 12.8672C141.844 12.8672 141.969 12.8672 142.094 12.8672C142.094 12.5859 142.039 12.3125 141.93 12.0469C141.836 11.7656 141.742 11.4453 141.648 11.0859C141.773 10.8047 141.859 10.5312 141.906 10.2656C141.953 10 142.039 9.75781 142.164 9.53906C142.664 9.69531 143.156 9.875 143.641 10.0781C144.125 10.2812 144.602 10.4844 145.07 10.6875C145.539 10.875 146 11.0625 146.453 11.25C146.906 11.4219 147.352 11.5625 147.789 11.6719C148.461 12.1562 149.148 12.6406 149.852 13.125C150.57 13.5938 151.219 14.1172 151.797 14.6953C152.391 15.2578 152.883 15.9062 153.273 16.6406C153.664 17.375 153.891 18.2422 153.953 19.2422C153.922 19.3359 153.898 19.4141 153.883 19.4766C153.867 19.5391 153.852 19.6016 153.836 19.6641C153.82 19.7266 153.812 19.7969 153.812 19.875C153.812 19.9531 153.812 20.0625 153.812 20.2031C153.25 21.1875 152.539 22.0156 151.68 22.6875C150.82 23.3594 149.883 23.9531 148.867 24.4688C147.852 24.9844 146.789 25.4609 145.68 25.8984C144.586 26.3203 143.516 26.7734 142.469 27.2578ZM144.766 13.9688C144.625 13.9688 144.523 14 144.461 14.0625C144.648 14.7656 144.789 15.4297 144.883 16.0547C144.977 16.6797 145.023 17.3047 145.023 17.9297C145.039 18.5547 145.008 19.1953 144.93 19.8516C144.852 20.5078 144.742 21.2188 144.602 21.9844C144.805 21.9688 144.984 21.9297 145.141 21.8672C145.297 21.8047 145.453 21.7344 145.609 21.6562C145.781 21.5781 145.953 21.5078 146.125 21.4453C146.312 21.3828 146.523 21.3438 146.758 21.3281C146.82 21.2031 146.898 21.1094 146.992 21.0469C147.102 20.9688 147.195 20.8906 147.273 20.8125C147.664 20.6562 148.055 20.4922 148.445 20.3203C148.836 20.1484 149.195 19.9531 149.523 19.7344C149.852 19.5156 150.148 19.2656 150.414 18.9844C150.68 18.7031 150.898 18.3672 151.07 17.9766C150.945 17.7422 150.789 17.5469 150.602 17.3906C150.43 17.2188 150.242 17.0547 150.039 16.8984C149.852 16.7266 149.664 16.5547 149.477 16.3828C149.305 16.1953 149.164 15.9844 149.055 15.75C148.805 15.7188 148.586 15.6562 148.398 15.5625C148.211 15.4531 148.031 15.3516 147.859 15.2578C147.688 15.1484 147.5 15.0469 147.297 14.9531C147.109 14.8594 146.883 14.8047 146.617 14.7891C146.211 14.5703 145.844 14.4219 145.516 14.3438C145.188 14.25 144.938 14.125 144.766 13.9688ZM166.703 25.0312C166.609 25.2969 166.469 25.5703 166.281 25.8516C166.109 26.1172 165.898 26.3594 165.648 26.5781C165.414 26.7812 165.148 26.9531 164.852 27.0938C164.555 27.2344 164.242 27.3125 163.914 27.3281C163.711 27.2812 163.57 27.2266 163.492 27.1641C163.43 27.1172 163.359 27.0703 163.281 27.0234C163.234 26.9922 163.188 26.9688 163.141 26.9531C163.109 26.9219 163.078 26.8984 163.047 26.8828L162.766 26.7656L162.859 26.4609C162.891 26.3359 162.883 26.2422 162.836 26.1797C162.789 26.1016 162.695 26 162.555 25.875C162.508 25.8281 162.461 25.7812 162.414 25.7344C162.367 25.6875 162.328 25.6406 162.297 25.5938L161.898 25.1484L162.531 24.9844C162.922 24.875 163.18 24.7344 163.305 24.5625C163.445 24.3906 163.5 24.1016 163.469 23.6953C163.156 23.6328 162.891 23.625 162.672 23.6719C162.469 23.7188 162.258 23.7734 162.039 23.8359C161.758 23.9141 161.469 23.9844 161.172 24.0469C160.891 24.0938 160.578 24.1172 160.234 24.1172C160.109 24.1172 159.992 24.1172 159.883 24.1172C159.773 24.1016 159.656 24.0859 159.531 24.0703L159.297 24.0234C159.266 23.8516 159.234 23.7578 159.203 23.7422C159.172 23.7109 159.141 23.6797 159.109 23.6484C159.031 23.5703 158.945 23.4688 158.852 23.3438C158.773 23.2031 158.758 23.0312 158.805 22.8281C158.727 22.6875 158.68 22.5469 158.664 22.4062C158.57 22.5938 158.5 22.7891 158.453 22.9922L158.359 23.2266L158.125 23.2734C158.094 23.2891 158.07 23.3281 158.055 23.3906C158.039 23.4375 158.031 23.4766 158.031 23.5078L157.914 23.9062C157.883 23.9375 157.852 23.9688 157.82 24C157.789 24.0156 157.758 24.0391 157.727 24.0703C157.695 24.2109 157.656 24.3516 157.609 24.4922C157.562 24.6328 157.516 24.7656 157.469 24.8906C157.391 25.0938 157.32 25.2969 157.258 25.5C157.211 25.6875 157.195 25.875 157.211 26.0625L157.117 26.3203C157.039 26.4141 156.953 26.4922 156.859 26.5547C156.766 26.6016 156.672 26.6484 156.578 26.6953C156.547 26.7266 156.5 26.7578 156.438 26.7891C156.391 26.8047 156.352 26.8203 156.32 26.8359L156.25 27.0938L155.969 27.1406C155.797 27.1719 155.672 27.1953 155.594 27.2109C155.531 27.2266 155.453 27.2344 155.359 27.2344L155.125 27.2109C154.953 27.0703 154.82 26.9609 154.727 26.8828C154.633 26.7891 154.523 26.7031 154.398 26.625C154.258 26.4375 154.18 26.2969 154.164 26.2031C154.148 26.1094 154.133 26.0234 154.117 25.9453C154.086 25.8516 154.07 25.7734 154.07 25.7109C154.055 25.6484 154.031 25.6016 154 25.5703L153.695 25.2891L153.953 25.0781L153.977 24.6797C154.289 23.8828 154.617 23.1172 154.961 22.3828C155.32 21.6484 155.688 20.8984 156.062 20.1328C156.188 19.8828 156.305 19.6328 156.414 19.3828C156.539 19.1328 156.664 18.8828 156.789 18.6328C156.773 18.5859 156.766 18.5312 156.766 18.4688C156.766 18.4062 156.781 18.3359 156.812 18.2578C156.984 17.9922 157.125 17.7578 157.234 17.5547C157.344 17.3359 157.453 17.1172 157.562 16.8984C157.688 16.6328 157.812 16.375 157.938 16.125C158.078 15.875 158.25 15.6172 158.453 15.3516L158.828 15.1875C158.875 15.1719 158.93 15.1562 158.992 15.1406C159.055 15.1094 159.125 15.0938 159.203 15.0938L159.555 15.1406C159.992 14.9375 160.375 14.6562 160.703 14.2969C161.031 13.9219 161.367 13.4766 161.711 12.9609L161.945 12.6328L162.25 12.8203C162.328 12.8672 162.438 12.9141 162.578 12.9609C162.719 12.9922 162.867 13.0312 163.023 13.0781C163.305 13.1406 163.57 13.2109 163.82 13.2891C164.07 13.3672 164.273 13.4844 164.43 13.6406C164.523 13.8906 164.578 14.0781 164.594 14.2031C164.609 14.3281 164.633 14.4531 164.664 14.5781C164.711 14.8438 164.75 15.1094 164.781 15.375C164.828 15.6406 164.859 15.9375 164.875 16.2656C164.953 16.5312 165.016 16.7969 165.062 17.0625C165.125 17.3125 165.18 17.5703 165.227 17.8359C165.305 18.2109 165.383 18.5781 165.461 18.9375C165.539 19.2812 165.641 19.6094 165.766 19.9219C165.891 19.9219 165.969 19.9297 166 19.9453C166.078 19.9141 166.156 19.8906 166.234 19.875C166.328 19.8594 166.43 19.8438 166.539 19.8281L166.797 19.8047L166.891 20.0391C166.906 20.1172 166.984 20.1953 167.125 20.2734C167.328 20.2891 167.477 20.3359 167.57 20.4141C167.664 20.4766 167.75 20.5469 167.828 20.625C167.891 20.6875 167.953 20.7344 168.016 20.7656L168.367 20.9062L168.18 21.2578C168.023 21.5391 167.797 21.8125 167.5 22.0781C167.219 22.3281 166.898 22.5391 166.539 22.7109C166.555 22.8047 166.562 22.8984 166.562 22.9922C166.578 23.0703 166.602 23.1562 166.633 23.25C166.68 23.5156 166.719 23.7891 166.75 24.0703C166.781 24.3516 166.781 24.6406 166.75 24.9375L166.703 25.0312ZM159.93 20.9766C160.398 20.9453 160.82 20.9141 161.195 20.8828C161.586 20.8359 162.016 20.7656 162.484 20.6719C162.375 20.2031 162.258 19.7188 162.133 19.2188C162.008 18.7031 161.875 18.1953 161.734 17.6953L161.594 17.9297C161.281 18.2578 160.977 18.625 160.68 19.0312C160.398 19.4375 160.156 19.8203 159.953 20.1797C159.859 20.3203 159.766 20.4609 159.672 20.6016C159.578 20.7422 159.492 20.8828 159.414 21.0234C159.508 21.0078 159.594 21 159.672 21C159.766 21 159.852 20.9922 159.93 20.9766ZM181.445 27.3047C180.898 27.0547 180.461 26.6875 180.133 26.2031C179.82 25.7188 179.508 25.1797 179.195 24.5859C179.148 24.4922 179.102 24.3984 179.055 24.3047C179.008 24.2109 178.961 24.125 178.914 24.0469L178.586 23.4375L178.398 23.0625L178.117 23.3203L177.695 23.6953L177.461 23.9297C177.055 24.3047 176.641 24.6797 176.219 25.0547C175.812 25.4141 175.375 25.7422 174.906 26.0391C174.453 26.3203 173.969 26.5547 173.453 26.7422C172.953 26.9141 172.406 27.0078 171.812 27.0234L171.297 26.7656C171 26.6094 170.75 26.4688 170.547 26.3438C170.344 26.2188 170.109 26.0234 169.844 25.7578C169.766 25.6172 169.695 25.4844 169.633 25.3594C169.586 25.2344 169.531 25.1094 169.469 24.9844C169.297 24.6719 169.156 24.3906 169.047 24.1406C168.938 23.8906 168.828 23.6094 168.719 23.2969C168.766 23.0781 168.836 22.7109 168.93 22.1953C169.023 21.6641 169.133 21.0859 169.258 20.4609C169.398 19.8359 169.539 19.2109 169.68 18.5859C169.836 17.9453 169.992 17.3906 170.148 16.9219C170.289 16.5156 170.445 16.0859 170.617 15.6328C170.805 15.1797 171 14.7656 171.203 14.3906C171.422 14 171.656 13.6719 171.906 13.4062C172.156 13.125 172.422 12.9609 172.703 12.9141C172.781 13.0234 172.867 13.1016 172.961 13.1484C173.055 13.1953 173.141 13.2344 173.219 13.2656C173.438 13.5781 173.648 13.8438 173.852 14.0625C174.07 14.2812 174.32 14.5 174.602 14.7188C174.523 15.1094 174.406 15.5469 174.25 16.0312C174.109 16.5 173.953 16.9766 173.781 17.4609C173.625 17.9297 173.469 18.3906 173.312 18.8438C173.156 19.2969 173.031 19.6875 172.938 20.0156C172.844 20.2812 172.766 20.5781 172.703 20.9062C172.562 21.4844 172.43 22.2734 172.305 23.2734C172.492 23.2266 172.695 23.125 172.914 22.9688C173.133 22.8125 173.344 22.6484 173.547 22.4766C173.781 22.2891 174.016 22.0781 174.25 21.8438C174.547 21.5469 174.797 21.2734 175 21.0234C175.203 20.7734 175.391 20.5156 175.562 20.25C175.75 19.9844 175.938 19.6953 176.125 19.3828C176.312 19.0547 176.539 18.6719 176.805 18.2344C177.039 17.8594 177.281 17.4609 177.531 17.0391C177.797 16.6016 178.055 16.1875 178.305 15.7969C178.57 15.3906 178.828 15.0234 179.078 14.6953C179.328 14.3672 179.555 14.1094 179.758 13.9219C179.883 14.0781 180.039 14.2266 180.227 14.3672C180.43 14.5078 180.641 14.6172 180.859 14.6953C180.953 14.8359 181.039 14.9688 181.117 15.0938C181.211 15.2031 181.297 15.3047 181.375 15.3984C181.469 15.5391 181.555 15.6719 181.633 15.7969C181.727 15.9219 181.812 16.0469 181.891 16.1719C181.875 16.2812 181.852 16.4219 181.82 16.5938C181.789 16.7656 181.75 16.9531 181.703 17.1562C181.672 17.3594 181.633 17.5703 181.586 17.7891C181.539 17.9922 181.492 18.1875 181.445 18.375C181.32 18.9688 181.227 19.4141 181.164 19.7109C181.102 20.0078 181.055 20.2422 181.023 20.4141C181.008 20.5859 180.992 20.7344 180.977 20.8594C180.977 20.9688 180.977 21.125 180.977 21.3281C180.961 21.4844 180.969 21.6406 181 21.7969C181.016 21.9375 181.047 22.0859 181.094 22.2422C181.141 22.3984 181.203 22.5391 181.281 22.6641L182.219 21.9375C182.484 21.7344 182.734 21.4609 182.969 21.1172C183.219 20.7578 183.453 20.3516 183.672 19.8984C183.906 19.4297 184.133 18.9219 184.352 18.375C184.57 17.8281 184.789 17.2734 185.008 16.7109C185.336 15.8828 185.664 15.0781 185.992 14.2969C186.336 13.5156 186.664 12.9141 186.977 12.4922C187.32 12.7109 187.617 12.9375 187.867 13.1719C188.133 13.3906 188.359 13.6328 188.547 13.8984C188.734 14.1641 188.883 14.4688 188.992 14.8125C189.117 15.1562 189.203 15.5625 189.25 16.0312C188.969 16.5781 188.695 17.1406 188.43 17.7188C188.18 18.2969 187.938 18.875 187.703 19.4531C187.391 20.2031 187.062 20.9531 186.719 21.7031C186.391 22.4531 186.023 23.1719 185.617 23.8594C185.211 24.5312 184.758 25.1562 184.258 25.7344C183.758 26.2969 183.18 26.7734 182.523 27.1641C182.352 27.1172 182.203 27.0938 182.078 27.0938C181.828 27.0938 181.617 27.1641 181.445 27.3047ZM201.719 19.9688C201.703 20.1562 201.719 20.3359 201.766 20.5078C201.812 20.6797 201.867 20.8516 201.93 21.0234C202.008 21.1797 202.078 21.3438 202.141 21.5156C202.203 21.6875 202.25 21.8594 202.281 22.0312C202.312 22.25 202.312 22.4922 202.281 22.7578C202.25 23.0078 202.195 23.2578 202.117 23.5078C202.039 23.7422 201.938 23.9609 201.812 24.1641C201.688 24.3516 201.539 24.4922 201.367 24.5859C201.148 24.8672 200.883 25.0859 200.57 25.2422C200.258 25.3984 199.969 25.5859 199.703 25.8047C199.531 25.9141 199.336 25.9922 199.117 26.0391C198.914 26.0859 198.703 26.1328 198.484 26.1797C198.312 26.2734 198.109 26.375 197.875 26.4844C197.641 26.5781 197.398 26.6719 197.148 26.7656C196.898 26.8438 196.648 26.9062 196.398 26.9531C196.148 26.9844 195.93 26.9922 195.742 26.9766C195.273 27.1484 194.812 27.2578 194.359 27.3047C193.922 27.3672 193.406 27.3359 192.812 27.2109C192.25 27.2891 191.727 27.2656 191.242 27.1406C190.773 27.0156 190.352 26.8203 189.977 26.5547C189.617 26.2734 189.297 25.9453 189.016 25.5703C188.75 25.1797 188.531 24.7734 188.359 24.3516C188.234 23.4609 188.266 22.6562 188.453 21.9375C188.641 21.2031 188.906 20.5312 189.25 19.9219C189.609 19.2969 190.016 18.7266 190.469 18.2109C190.922 17.6797 191.359 17.1641 191.781 16.6641C191.875 16.6953 191.945 16.6953 191.992 16.6641C192.055 16.6172 192.109 16.5625 192.156 16.5C192.203 16.4219 192.25 16.3516 192.297 16.2891C192.359 16.2266 192.43 16.1875 192.508 16.1719C192.617 15.9375 192.773 15.7656 192.977 15.6562C193.195 15.5312 193.367 15.3594 193.492 15.1406C193.633 15.1094 193.75 15.0625 193.844 15C193.938 14.9375 194.023 14.8672 194.102 14.7891C194.195 14.7109 194.289 14.6406 194.383 14.5781C194.477 14.5 194.586 14.4453 194.711 14.4141V14.1562C194.992 14.0312 195.195 13.8906 195.32 13.7344C195.461 13.5625 195.625 13.3594 195.812 13.125C195.953 13.1094 196.062 13.1016 196.141 13.1016C196.234 13.1016 196.367 13.0859 196.539 13.0547C196.664 12.8359 196.773 12.6719 196.867 12.5625C196.977 12.4531 197.133 12.3359 197.336 12.2109C197.523 12.3047 197.727 12.3672 197.945 12.3984C198.18 12.4297 198.383 12.5312 198.555 12.7031C198.57 12.8594 198.617 12.9844 198.695 13.0781C198.773 13.1562 198.859 13.2344 198.953 13.3125C199.047 13.375 199.133 13.4453 199.211 13.5234C199.305 13.6016 199.367 13.7109 199.398 13.8516C199.461 13.8672 199.5 13.8594 199.516 13.8281C199.547 13.7969 199.594 13.7891 199.656 13.8047C199.703 14.0234 199.758 14.1719 199.82 14.25C199.883 14.3125 199.945 14.4453 200.008 14.6484C199.93 14.8047 199.867 14.9688 199.82 15.1406C199.789 15.2969 199.695 15.4141 199.539 15.4922C199.523 15.6016 199.555 15.6641 199.633 15.6797C199.711 15.6797 199.758 15.7188 199.773 15.7969C199.789 15.9375 199.766 16.0391 199.703 16.1016C200.078 16.7109 200.414 17.3594 200.711 18.0469C201.008 18.7188 201.344 19.3594 201.719 19.9688ZM198.789 22.1953C198.852 22.0234 198.93 21.8828 199.023 21.7734C199.133 21.6641 199.195 21.5 199.211 21.2812C199.133 21.1562 199.086 21.0625 199.07 21C199.055 20.9219 199.047 20.8047 199.047 20.6484C198.703 20.1641 198.406 19.6484 198.156 19.1016C197.906 18.5391 197.625 18.0156 197.312 17.5312C197.281 17.5938 197.227 17.6562 197.148 17.7188C197.07 17.7812 196.984 17.7656 196.891 17.6719C196.859 17.7969 196.805 17.8906 196.727 17.9531C196.648 18 196.562 18.0234 196.469 18.0234C196.375 18.0078 196.273 17.9844 196.164 17.9531C196.07 17.9062 195.984 17.8516 195.906 17.7891C195.453 18.1484 195 18.5 194.547 18.8438C194.094 19.1875 193.688 19.5859 193.328 20.0391C193.266 20.0703 193.227 20.0859 193.211 20.0859C193.195 20.0703 193.148 20.0781 193.07 20.1094C192.945 20.4062 192.789 20.6797 192.602 20.9297C192.43 21.1641 192.258 21.4062 192.086 21.6562C191.914 21.9062 191.766 22.1719 191.641 22.4531C191.516 22.7344 191.445 23.0625 191.43 23.4375C191.695 23.6562 192.008 23.7891 192.367 23.8359C192.727 23.8828 193.094 23.8906 193.469 23.8594C193.859 23.8281 194.234 23.7812 194.594 23.7188C194.969 23.6406 195.312 23.6016 195.625 23.6016C196.281 23.4453 196.844 23.2422 197.312 22.9922C197.781 22.7266 198.273 22.4609 198.789 22.1953ZM216.812 19.9688C216.797 20.1562 216.812 20.3359 216.859 20.5078C216.906 20.6797 216.961 20.8516 217.023 21.0234C217.102 21.1797 217.172 21.3438 217.234 21.5156C217.297 21.6875 217.344 21.8594 217.375 22.0312C217.406 22.25 217.406 22.4922 217.375 22.7578C217.344 23.0078 217.289 23.2578 217.211 23.5078C217.133 23.7422 217.031 23.9609 216.906 24.1641C216.781 24.3516 216.633 24.4922 216.461 24.5859C216.242 24.8672 215.977 25.0859 215.664 25.2422C215.352 25.3984 215.062 25.5859 214.797 25.8047C214.625 25.9141 214.43 25.9922 214.211 26.0391C214.008 26.0859 213.797 26.1328 213.578 26.1797C213.406 26.2734 213.203 26.375 212.969 26.4844C212.734 26.5781 212.492 26.6719 212.242 26.7656C211.992 26.8438 211.742 26.9062 211.492 26.9531C211.242 26.9844 211.023 26.9922 210.836 26.9766C210.367 27.1484 209.906 27.2578 209.453 27.3047C209.016 27.3672 208.5 27.3359 207.906 27.2109C207.344 27.2891 206.82 27.2656 206.336 27.1406C205.867 27.0156 205.445 26.8203 205.07 26.5547C204.711 26.2734 204.391 25.9453 204.109 25.5703C203.844 25.1797 203.625 24.7734 203.453 24.3516C203.328 23.4609 203.359 22.6562 203.547 21.9375C203.734 21.2031 204 20.5312 204.344 19.9219C204.703 19.2969 205.109 18.7266 205.562 18.2109C206.016 17.6797 206.453 17.1641 206.875 16.6641C206.969 16.6953 207.039 16.6953 207.086 16.6641C207.148 16.6172 207.203 16.5625 207.25 16.5C207.297 16.4219 207.344 16.3516 207.391 16.2891C207.453 16.2266 207.523 16.1875 207.602 16.1719C207.711 15.9375 207.867 15.7656 208.07 15.6562C208.289 15.5312 208.461 15.3594 208.586 15.1406C208.727 15.1094 208.844 15.0625 208.938 15C209.031 14.9375 209.117 14.8672 209.195 14.7891C209.289 14.7109 209.383 14.6406 209.477 14.5781C209.57 14.5 209.68 14.4453 209.805 14.4141V14.1562C210.086 14.0312 210.289 13.8906 210.414 13.7344C210.555 13.5625 210.719 13.3594 210.906 13.125C211.047 13.1094 211.156 13.1016 211.234 13.1016C211.328 13.1016 211.461 13.0859 211.633 13.0547C211.758 12.8359 211.867 12.6719 211.961 12.5625C212.07 12.4531 212.227 12.3359 212.43 12.2109C212.617 12.3047 212.82 12.3672 213.039 12.3984C213.273 12.4297 213.477 12.5312 213.648 12.7031C213.664 12.8594 213.711 12.9844 213.789 13.0781C213.867 13.1562 213.953 13.2344 214.047 13.3125C214.141 13.375 214.227 13.4453 214.305 13.5234C214.398 13.6016 214.461 13.7109 214.492 13.8516C214.555 13.8672 214.594 13.8594 214.609 13.8281C214.641 13.7969 214.688 13.7891 214.75 13.8047C214.797 14.0234 214.852 14.1719 214.914 14.25C214.977 14.3125 215.039 14.4453 215.102 14.6484C215.023 14.8047 214.961 14.9688 214.914 15.1406C214.883 15.2969 214.789 15.4141 214.633 15.4922C214.617 15.6016 214.648 15.6641 214.727 15.6797C214.805 15.6797 214.852 15.7188 214.867 15.7969C214.883 15.9375 214.859 16.0391 214.797 16.1016C215.172 16.7109 215.508 17.3594 215.805 18.0469C216.102 18.7188 216.438 19.3594 216.812 19.9688ZM213.883 22.1953C213.945 22.0234 214.023 21.8828 214.117 21.7734C214.227 21.6641 214.289 21.5 214.305 21.2812C214.227 21.1562 214.18 21.0625 214.164 21C214.148 20.9219 214.141 20.8047 214.141 20.6484C213.797 20.1641 213.5 19.6484 213.25 19.1016C213 18.5391 212.719 18.0156 212.406 17.5312C212.375 17.5938 212.32 17.6562 212.242 17.7188C212.164 17.7812 212.078 17.7656 211.984 17.6719C211.953 17.7969 211.898 17.8906 211.82 17.9531C211.742 18 211.656 18.0234 211.562 18.0234C211.469 18.0078 211.367 17.9844 211.258 17.9531C211.164 17.9062 211.078 17.8516 211 17.7891C210.547 18.1484 210.094 18.5 209.641 18.8438C209.188 19.1875 208.781 19.5859 208.422 20.0391C208.359 20.0703 208.32 20.0859 208.305 20.0859C208.289 20.0703 208.242 20.0781 208.164 20.1094C208.039 20.4062 207.883 20.6797 207.695 20.9297C207.523 21.1641 207.352 21.4062 207.18 21.6562C207.008 21.9062 206.859 22.1719 206.734 22.4531C206.609 22.7344 206.539 23.0625 206.523 23.4375C206.789 23.6562 207.102 23.7891 207.461 23.8359C207.82 23.8828 208.188 23.8906 208.562 23.8594C208.953 23.8281 209.328 23.7812 209.688 23.7188C210.062 23.6406 210.406 23.6016 210.719 23.6016C211.375 23.4453 211.938 23.2422 212.406 22.9922C212.875 22.7266 213.367 22.4609 213.883 22.1953ZM229.797 20.6719C229.781 20.75 229.766 20.8203 229.75 20.8828C229.734 20.9297 229.719 20.9766 229.703 21.0234C229.688 21.0703 229.68 21.1328 229.68 21.2109C229.68 21.2734 229.68 21.3594 229.68 21.4688C229.211 22.2969 228.617 22.9922 227.898 23.5547C227.195 24.1172 226.414 24.6172 225.555 25.0547C224.711 25.4766 223.828 25.8672 222.906 26.2266C221.984 26.5703 221.086 26.9453 220.211 27.3516C219.836 27.2578 219.547 27.1016 219.344 26.8828C219.156 26.6641 219.008 26.4141 218.898 26.1328C218.805 25.8359 218.734 25.5156 218.688 25.1719C218.656 24.8125 218.625 24.4453 218.594 24.0703C218.641 23.8984 218.703 23.7578 218.781 23.6484C218.875 23.5234 218.922 23.3516 218.922 23.1328C219.047 22.7266 219.172 22.3281 219.297 21.9375C219.422 21.5469 219.5 21.1484 219.531 20.7422C219.578 20.6172 219.664 20.5312 219.789 20.4844C219.867 19.7344 219.867 18.9766 219.789 18.2109C219.727 17.4297 219.602 16.7031 219.414 16.0312C219.43 15.875 219.445 15.7656 219.461 15.7031C219.492 15.625 219.492 15.5703 219.461 15.5391C219.445 15.4141 219.484 15.3516 219.578 15.3516C219.688 15.3516 219.797 15.3516 219.906 15.3516C219.906 15.1172 219.859 14.8828 219.766 14.6484C219.688 14.4141 219.609 14.1484 219.531 13.8516C219.641 13.6172 219.711 13.3906 219.742 13.1719C219.773 12.9375 219.844 12.7344 219.953 12.5625C220.797 12.8281 221.602 13.1484 222.367 13.5234C223.148 13.8984 223.914 14.1719 224.664 14.3438C225.227 14.75 225.805 15.1562 226.398 15.5625C226.992 15.9531 227.531 16.3906 228.016 16.875C228.5 17.3438 228.906 17.8828 229.234 18.4922C229.562 19.1016 229.75 19.8281 229.797 20.6719ZM224.242 21.9609C224.57 21.8359 224.891 21.7031 225.203 21.5625C225.531 21.4219 225.828 21.2656 226.094 21.0938C226.375 20.9062 226.625 20.6953 226.844 20.4609C227.062 20.2266 227.242 19.9453 227.383 19.6172C227.289 19.4297 227.164 19.2656 227.008 19.125C226.852 18.9688 226.695 18.8281 226.539 18.7031C226.383 18.5625 226.227 18.4219 226.07 18.2812C225.93 18.1406 225.812 17.9688 225.719 17.7656C225.516 17.7344 225.336 17.6797 225.18 17.6016C225.023 17.5078 224.867 17.4219 224.711 17.3438C224.57 17.25 224.414 17.1641 224.242 17.0859C224.086 17.0078 223.898 16.9609 223.68 16.9453C223.336 16.7734 223.023 16.6484 222.742 16.5703C222.477 16.4922 222.273 16.3906 222.133 16.2656C222.023 16.2656 221.938 16.2891 221.875 16.3359C222.031 16.9297 222.148 17.4922 222.227 18.0234C222.305 18.5391 222.344 19.0625 222.344 19.5938C222.359 20.1094 222.336 20.6406 222.273 21.1875C222.211 21.7344 222.125 22.3281 222.016 22.9688C222.172 22.9531 222.312 22.9219 222.438 22.875C222.578 22.8125 222.711 22.75 222.836 22.6875C222.977 22.625 223.117 22.5703 223.258 22.5234C223.414 22.4609 223.594 22.4219 223.797 22.4062C223.844 22.3125 223.906 22.2344 223.984 22.1719C224.078 22.1094 224.164 22.0391 224.242 21.9609Z" fill="black"/>
                </svg>
